<svg xmlns="http://www.w3.org/2000/svg" viewBox="0 0 670 98.003"><g fill="#FFF"><path d="M146.54 35.55c0 3.69 2.537 5.765 6.457 7.225 8.61 3.307 25.752 4.152 25.752 18.295 0 9.533-7.61 16.605-19.987 16.605-9.148 0-16.682-3.92-20.833-10.455l5.61-3.92c3.768 6.072 10.15 8.072 15.606 8.072 7.688 0 12.608-3.844 12.608-9.764 0-6.225-5.458-7.84-13.3-9.84-8.994-2.075-18.91-4.996-18.91-15.76 0-9.992 8.764-15.22 18.833-15.22 7.84 0 14.683 3.15 19.142 9.07l-5.306 3.922c-3.23-4.152-8.225-6.688-14.145-6.688-6.304.002-11.53 3-11.53 8.457zM229.103 71.22l4.074 4.996-4.688 3.996-4.46-5.535c-3.537 2-7.765 2.998-12.3 2.998-15.914 0-26.138-12.3-26.138-28.442 0-16.22 10.225-28.444 26.138-28.444 15.913 0 26.137 12.223 26.137 28.443 0 9.07-3.23 16.837-8.764 21.987zM211.73 27.4c-11.687 0-18.76 8.84-18.76 21.833 0 12.915 7.073 21.83 18.76 21.83 2.92 0 5.61-.536 7.916-1.69l-6.38-7.994 4.69-3.767 6.61 8.38c3.844-3.92 5.997-9.765 5.997-16.76 0-12.992-7.148-21.834-18.834-21.834zM289.912 56.767c0 12.762-8.994 20.908-21.217 20.908-12.376 0-21.14-8.146-21.14-20.908V21.79h6.918v34.977c0 8.61 5.38 14.297 14.222 14.297 8.763 0 14.298-5.688 14.298-14.297V21.79h6.92v34.977zM338.652 76.677l-5.765-15.76h-23.602l-5.842 15.76h-7.38l21.218-54.888h8.072l21.217 54.887h-7.918zm-17.373-48.2l-9.765 26.214h19.065l-9.3-26.213zM388.008 76.677l-11.764-22.602h-15.22v22.602h-6.92V21.79h23.37c10.84 0 17.758 6.148 17.758 15.758 0 7.763-4.227 13.144-11.76 15.45l12.453 23.68h-7.917zm-10.762-48.43h-16.223v19.678h16.066c6.843 0 10.917-3.996 10.917-9.84 0-5.996-4.228-9.838-10.76-9.838zM405.46 76.677V21.79h37.052v6.457H412.38v16.45h26.825v6.15H412.38V70.22h30.903v6.458H405.46zM512.318 35.396c-3.383-5.15-8.69-8.15-15.38-8.15-11.526 0-18.675 8.84-18.675 21.988 0 13.223 7.3 21.987 18.984 21.987 6.768 0 11.533-2.92 15.3-8.226l5.536 3.842c-5 7.072-11.84 10.84-20.836 10.84-15.912 0-26.29-11.838-26.29-28.442 0-16.453 10.302-28.444 25.98-28.444 8.997 0 16.146 3.92 20.84 10.762l-5.46 3.844zM563.746 76.677l-5.766-15.76h-23.598l-5.846 15.76h-7.38l21.218-54.888h8.07l21.22 54.887h-7.918zm-17.373-48.2L536.61 54.69h19.065l-9.302-26.213zM585.197 35.55c0 3.69 2.533 5.765 6.457 7.225 8.61 3.307 25.754 4.152 25.754 18.295 0 9.533-7.61 16.605-19.988 16.605-9.148 0-16.682-3.92-20.832-10.455l5.61-3.92c3.767 6.072 10.147 8.072 15.606 8.072 7.688 0 12.605-3.844 12.605-9.764 0-6.225-5.458-7.84-13.3-9.84-8.996-2.075-18.908-4.996-18.908-15.76 0-9.992 8.762-15.22 18.832-15.22 7.842 0 14.684 3.15 19.143 9.07l-5.307 3.922c-3.227-4.152-8.225-6.688-14.145-6.688-6.3.002-11.528 3-11.528 8.457zM663.072 76.677v-25.83h-30.057v25.83h-6.922V21.79h6.922v22.676h30.057V21.79h6.916v54.887h-6.916z"/></g><path fill="#28C101" d="M34.18 0h29.667C73.685 0 78.604 0 83.9 1.674c5.782 2.105 10.336 6.66 12.44 12.44 1.675 5.296 1.675 10.215 1.675 20.054v29.668c0 9.838 0 14.756-1.674 20.053-2.104 5.78-6.658 10.335-12.44 12.438-5.296 1.676-10.214 1.676-20.053 1.676H34.18c-9.838 0-14.757 0-20.053-1.676-5.782-2.104-10.336-6.66-12.44-12.44C.01 78.59.01 73.673.01 63.835V34.167c0-9.838 0-14.757 1.674-20.053 2.105-5.78 6.66-10.335 12.44-12.44C19.423 0 24.342 0 34.18 0"/><path fill="#FFF" d="M63.33 31.02c-2.698-3.4-6.207-5.63-10.843-6.33v21.008c8.007 2.34 15.712 5.674 15.712 16.13 0 8.962-5.522 15.657-15.713 16.415v4.242h-3.202l-1.704.008v-4.35c-7.706-.645-14.102-4.14-17.752-9.633l4.624-3.072c3.488 5.254 8.588 7.416 13.13 7.9V50.192C39.794 48.09 31.37 44.916 31.37 34.735c0-9.534 7.537-14.787 16.218-15.352v-3.868h4.9v3.948c6.324.643 11.317 3.642 14.98 8.322l-4.137 3.235zm-15.75-6.45c-6.002.404-10.695 3.783-10.695 9.843 0 6.14 5.342 8.564 10.696 10.02V24.57zm15.254 37.42c0-6.213-3.412-8.352-10.348-10.502v21.807c6.704-.588 10.348-4.856 10.348-11.305z"/></svg>